<svg xmlns="http://www.w3.org/2000/svg" viewBox="0 0 800 500" width="800" height="500" font-family="'PingFang SC','Microsoft YaHei',sans-serif">
  <rect width="800" height="500" fill="#f1f5f9"/>
  <rect width="180" height="500" fill="#0f1e3d"/>
  <rect x="20" y="22" width="140" height="14" rx="7" fill="#3c6fff"/>
  <g fill="#1e3a8a">
    <rect x="20" y="70" width="140" height="30" rx="6" fill="#1d3aab"/>
    <rect x="20" y="112" width="140" height="30" rx="6"/>
    <rect x="20" y="154" width="140" height="30" rx="6"/>
    <rect x="20" y="196" width="140" height="30" rx="6"/>
  </g>
  <rect x="180" width="620" height="56" fill="#ffffff"/>
  <rect x="204" y="20" width="140" height="16" rx="8" fill="#0f172a"/>
  <circle cx="760" cy="28" r="14" fill="#dbeafe"/>
  <!-- stat cards -->
  <g>
    <rect x="204" y="80" width="138" height="86" rx="10" fill="#ffffff"/>
    <rect x="220" y="98" width="50" height="9" rx="4" fill="#94a3b8"/>
    <text x="220" y="142" font-size="30" font-weight="800" fill="#3c6fff">316</text>
    <rect x="356" y="80" width="138" height="86" rx="10" fill="#ffffff"/>
    <rect x="372" y="98" width="50" height="9" rx="4" fill="#94a3b8"/>
    <text x="372" y="142" font-size="30" font-weight="800" fill="#7a5cff">14</text>
    <rect x="508" y="80" width="138" height="86" rx="10" fill="#ffffff"/>
    <rect x="524" y="98" width="50" height="9" rx="4" fill="#94a3b8"/>
    <text x="524" y="142" font-size="30" font-weight="800" fill="#22c55e">7</text>
    <rect x="660" y="80" width="116" height="86" rx="10" fill="#ffffff"/>
    <rect x="676" y="98" width="50" height="9" rx="4" fill="#94a3b8"/>
    <text x="676" y="142" font-size="30" font-weight="800" fill="#f59e0b">24</text>
  </g>
  <!-- user table -->
  <rect x="204" y="186" width="572" height="284" rx="10" fill="#ffffff"/>
  <rect x="224" y="206" width="120" height="14" rx="7" fill="#0f172a"/>
  <rect x="676" y="202" width="80" height="24" rx="6" fill="#3c6fff"/>
  <g fill="#eef2f7">
    <rect x="224" y="238" width="532" height="34" rx="6"/>
    <rect x="224" y="280" width="532" height="34" rx="6"/>
    <rect x="224" y="322" width="532" height="34" rx="6"/>
    <rect x="224" y="364" width="532" height="34" rx="6"/>
    <rect x="224" y="406" width="532" height="34" rx="6"/>
  </g>
  <g>
    <rect x="300" y="10" width="200" height="26" rx="13" fill="#3c6fff" opacity="0.92"/>
    <text x="400" y="28" font-size="13" font-weight="600" fill="#fff" text-anchor="middle">管理员端 · 替换为真实截图</text>
  </g>
</svg>
