<svg xmlns="http://www.w3.org/2000/svg" viewBox="0 0 800 500" width="800" height="500" font-family="'PingFang SC','Microsoft YaHei',sans-serif">
  <rect width="800" height="500" fill="#f1f5f9"/>
  <!-- sidebar -->
  <rect width="180" height="500" fill="#1e293b"/>
  <rect x="20" y="22" width="140" height="14" rx="7" fill="#7a5cff"/>
  <g fill="#475569">
    <rect x="20" y="70" width="140" height="30" rx="6" fill="#334155"/>
    <rect x="32" y="80" width="90" height="10" rx="5" fill="#cbd5e1"/>
    <rect x="20" y="112" width="140" height="30" rx="6"/>
    <rect x="20" y="154" width="140" height="30" rx="6"/>
    <rect x="20" y="196" width="140" height="30" rx="6"/>
    <rect x="20" y="238" width="140" height="30" rx="6"/>
  </g>
  <!-- topbar -->
  <rect x="180" width="620" height="56" fill="#ffffff"/>
  <rect x="204" y="20" width="160" height="16" rx="8" fill="#0f172a"/>
  <circle cx="760" cy="28" r="14" fill="#e0e7ff"/>
  <!-- cards -->
  <g>
    <rect x="204" y="80" width="180" height="80" rx="10" fill="#ffffff"/>
    <rect x="220" y="98" width="60" height="10" rx="5" fill="#94a3b8"/>
    <rect x="220" y="118" width="90" height="22" rx="6" fill="#3c6fff"/>
    <rect x="404" y="80" width="180" height="80" rx="10" fill="#ffffff"/>
    <rect x="420" y="98" width="60" height="10" rx="5" fill="#94a3b8"/>
    <rect x="420" y="118" width="90" height="22" rx="6" fill="#7a5cff"/>
    <rect x="604" y="80" width="172" height="80" rx="10" fill="#ffffff"/>
    <rect x="620" y="98" width="60" height="10" rx="5" fill="#94a3b8"/>
    <rect x="620" y="118" width="90" height="22" rx="6" fill="#22c55e"/>
  </g>
  <!-- table / chart -->
  <rect x="204" y="180" width="370" height="290" rx="10" fill="#ffffff"/>
  <rect x="224" y="200" width="120" height="14" rx="7" fill="#0f172a"/>
  <g fill="#e2e8f0">
    <rect x="224" y="232" width="330" height="36" rx="6"/>
    <rect x="224" y="278" width="330" height="36" rx="6"/>
    <rect x="224" y="324" width="330" height="36" rx="6"/>
    <rect x="224" y="370" width="330" height="36" rx="6"/>
    <rect x="224" y="416" width="330" height="36" rx="6"/>
  </g>
  <rect x="594" y="180" width="182" height="290" rx="10" fill="#ffffff"/>
  <rect x="614" y="200" width="100" height="14" rx="7" fill="#0f172a"/>
  <circle cx="685" cy="320" r="70" fill="none" stroke="#e2e8f0" stroke-width="22"/>
  <path d="M685 250 A70 70 0 0 1 745 355" fill="none" stroke="#3c6fff" stroke-width="22"/>
  <!-- placeholder badge -->
  <g>
    <rect x="300" y="10" width="200" height="26" rx="13" fill="#3c6fff" opacity="0.92"/>
    <text x="400" y="28" font-size="13" font-weight="600" fill="#fff" text-anchor="middle">教师端 · 替换为真实截图</text>
  </g>
</svg>
